<svg width="73" height="59" viewBox="0 0 73 59" fill="none" xmlns="http://www.w3.org/2000/svg">
<path d="M30.9794 18.7803C30.6383 18.584 30.2369 18.4674 29.8192 18.4432C29.4016 18.419 28.9837 18.4882 28.6115 18.6432C28.2392 18.7982 27.927 19.033 27.7089 19.3219C27.4908 19.6108 27.3753 19.9427 27.375 20.2811V38.7186C27.3753 39.057 27.4908 39.3889 27.7089 39.6778C27.927 39.9667 28.2392 40.2015 28.6115 40.3565C28.9837 40.5115 29.4016 40.5807 29.8192 40.5565C30.2369 40.5323 30.6383 40.4157 30.9794 40.2194L46.9481 31.0007C47.2438 30.8301 47.4849 30.6049 47.6512 30.3439C47.8175 30.0828 47.9043 29.7935 47.9043 29.4998C47.9043 29.2062 47.8175 28.9168 47.6512 28.6558C47.4849 28.3948 47.2438 28.1696 46.9481 27.999L30.9794 18.7803V18.7803Z" fill="#013BA7"/>
<path d="M0 14.75C0 12.794 0.961381 10.9182 2.67265 9.53509C4.38392 8.15201 6.7049 7.375 9.125 7.375H63.875C66.2951 7.375 68.6161 8.15201 70.3273 9.53509C72.0386 10.9182 73 12.794 73 14.75V44.25C73 46.206 72.0386 48.0818 70.3273 49.4649C68.6161 50.848 66.2951 51.625 63.875 51.625H9.125C6.7049 51.625 4.38392 50.848 2.67265 49.4649C0.961381 48.0818 0 46.206 0 44.25V14.75ZM68.4375 14.75C68.4375 13.772 67.9568 12.8341 67.1012 12.1425C66.2455 11.451 65.0851 11.0625 63.875 11.0625H9.125C7.91495 11.0625 6.75446 11.451 5.89883 12.1425C5.04319 12.8341 4.5625 13.772 4.5625 14.75V44.25C4.5625 45.228 5.04319 46.1659 5.89883 46.8575C6.75446 47.549 7.91495 47.9375 9.125 47.9375H63.875C65.0851 47.9375 66.2455 47.549 67.1012 46.8575C67.9568 46.1659 68.4375 45.228 68.4375 44.25V14.75Z" fill="#013BA7"/>
</svg>
