<?xml version="1.0" encoding="utf-8"?>
<!-- Generator: Adobe Illustrator 27.0.1, SVG Export Plug-In . SVG Version: 6.00 Build 0)  -->
<svg version="1.1" id="Layer_1" xmlns="http://www.w3.org/2000/svg" xmlns:xlink="http://www.w3.org/1999/xlink" x="0px" y="0px"
	 viewBox="0 0 76 77" style="enable-background:new 0 0 76 77;" xml:space="preserve">
<style type="text/css">
	.st0{fill:#0047B6;}
	.st1{fill:none;stroke:#8AA5D6;stroke-width:3;}
</style>
<path class="st0" d="M32.4,25.7h-1.9c-3.1,0-5.6,2.5-5.6,5.6v14.9c0,3.1,2.5,5.6,5.6,5.6h1.9V25.7z M34.3,51.7h11.1
	c3.1,0,5.6-2.5,5.6-5.6v-1.9H34.3V51.7z M51,42.4V31.3c0-3.1-2.5-5.6-5.6-5.6H34.3v16.7H51z"/>
<path class="st1" d="M38,2.2L38,2.2c20.2,0,36.5,16.3,36.5,36.5l0,0c0,20.2-16.3,36.5-36.5,36.5l0,0c-20.2,0-36.5-16.3-36.5-36.5
	l0,0C1.5,18.5,17.8,2.2,38,2.2z"/>
</svg>
